<?xml version="1.0" encoding="UTF-8" standalone="no"?>
<!DOCTYPE svg PUBLIC "-//W3C//DTD SVG 1.1//EN" "http://www.w3.org/Graphics/SVG/1.1/DTD/svg11.dtd">
<svg width="100%" height="100%" viewBox="0 0 2000 2000" version="1.1" xmlns="http://www.w3.org/2000/svg" xmlns:xlink="http://www.w3.org/1999/xlink" xml:space="preserve" xmlns:serif="http://www.serif.com/" style="fill-rule:evenodd;clip-rule:evenodd;stroke-linecap:round;stroke-linejoin:round;stroke-miterlimit:1.5;">
    <g transform="matrix(3.807393,0,0,3.780077,-1183.750973,-1271.466887)">
        <circle cx="575" cy="605" r="257" style="fill:url(#_Linear1);"/>
    </g>
    <g transform="matrix(3.315526,0,0,3.269952,-904.937516,-961.976646)">
        <circle cx="575" cy="605" r="257" style="fill:url(#_Linear2);"/>
    </g>
    <g transform="matrix(2.172521,0,0,2.142658,-249.792853,-282.176097)">
        <circle cx="575" cy="605" r="257" style="fill:rgb(12,14,16);stroke:rgb(12,91,95);stroke-width:1.93px;"/>
    </g>
    <g transform="matrix(8.647027,0,0,8.647027,-84.485249,-1674.978839)">
        <g transform="matrix(0.707107,0.707107,-0.707107,0.707107,154.137825,39.824549)">
            <rect x="155" y="168" width="33" height="88" style="fill:rgb(121,225,174);stroke:rgb(12,14,16);stroke-width:1.93px;"/>
        </g>
        <g transform="matrix(-0.707107,0.707107,-0.707107,-0.707107,396.675451,339.637825)">
            <rect x="155" y="168" width="33" height="88" style="fill:rgb(121,225,174);stroke:rgb(12,14,16);stroke-width:1.93px;"/>
        </g>
    </g>
    <defs>
        <linearGradient id="_Linear1" x1="0" y1="0" x2="1" y2="0" gradientUnits="userSpaceOnUse" gradientTransform="matrix(514,0,0,514,318,605)"><stop offset="0" style="stop-color:rgb(223,227,229);stop-opacity:1"/><stop offset="0.58" style="stop-color:rgb(245,246,247);stop-opacity:1"/><stop offset="1" style="stop-color:white;stop-opacity:1"/></linearGradient>
        <linearGradient id="_Linear2" x1="0" y1="0" x2="1" y2="0" gradientUnits="userSpaceOnUse" gradientTransform="matrix(514,0,0,514,318,605)"><stop offset="0" style="stop-color:rgb(37,108,77);stop-opacity:1"/><stop offset="1" style="stop-color:rgb(58,175,117);stop-opacity:1"/></linearGradient>
    </defs>
</svg>
